<svg width="1599" height="1137" viewBox="0 0 1599 1137" fill="none" xmlns="http://www.w3.org/2000/svg">
<path d="M626 962.923V1136L765 1039.08V866L626 962.923Z" fill="white"/>
<path d="M626 962.923V1136L765 1039.08V866L626 962.923Z" stroke="#ECECEC"/>
<path d="M-2 276.949V546L378 276.949V1L-2 276.949Z" stroke="#ECECEC"/>
<path d="M833 276.949V546L1213 276.949V1L833 276.949Z" stroke="#ECECEC"/>
<path d="M377.054 1093L-2 821.528V546.262L377.624 817.288L728.54 568.655V437.568L377.054 685.942V409.971L763 134V817.029L377.054 1093Z" stroke="#ECECEC"/>
<path d="M1212.05 1093L833 821.528V546.262L1212.62 817.288L1563.54 568.655V437.568L1212.05 685.942V409.971L1598 134V817.029L1212.05 1093Z" stroke="#ECECEC"/>
</svg>
