<svg width="55" height="41" viewBox="0 0 55 41" fill="none" xmlns="http://www.w3.org/2000/svg">
<path d="M49.8438 40.8H5.15625C2.41243 40.8 0.2 38.5992 0.2 35.875V5.125C0.2 2.40077 2.41243 0.2 5.15625 0.2H49.8438C52.5876 0.2 54.8 2.40077 54.8 5.125V35.875C54.8 38.5992 52.5876 40.8 49.8438 40.8ZM5.15625 3.21667C4.08444 3.21667 3.2375 4.05673 3.2375 5.125V35.875C3.2375 36.9433 4.08444 37.7833 5.15625 37.7833H49.8438C50.9156 37.7833 51.7625 36.9433 51.7625 35.875V5.125C51.7625 4.05673 50.9156 3.21667 49.8438 3.21667H5.15625Z" fill="#CCA665" stroke="white" stroke-width="0.4"/>
</svg>
