<svg width="27" height="27" viewBox="0 0 27 27" fill="none" xmlns="http://www.w3.org/2000/svg">
<path d="M25.3224 18.5331L19.0509 15.7267C18.8078 15.6215 18.5423 15.5786 18.2784 15.6018C18.0145 15.625 17.7606 15.7136 17.5395 15.8596C17.5219 15.8708 17.505 15.8832 17.4891 15.8967L14.1953 18.7044C14.122 18.7491 14.0388 18.775 13.9531 18.7799C13.8674 18.7848 13.7818 18.7684 13.7039 18.7323C11.547 17.691 9.31447 15.4757 8.27322 13.3441C8.23638 13.2668 8.21929 13.1816 8.22346 13.096C8.22763 13.0105 8.25294 12.9274 8.29712 12.854L11.1127 9.50581C11.126 9.48987 11.138 9.47261 11.1499 9.45534C11.2955 9.23461 11.3838 8.98113 11.407 8.71775C11.4302 8.45437 11.3875 8.18936 11.2827 7.94659L8.47111 1.68581C8.33537 1.36872 8.10043 1.10422 7.80155 0.932028C7.50268 0.759841 7.15601 0.689262 6.81361 0.730889C5.14225 0.951252 3.60827 1.77249 2.49817 3.04121C1.38807 4.30993 0.77777 5.93937 0.781265 7.62519C0.781265 17.8783 9.12189 26.2189 19.375 26.2189C21.0608 26.2224 22.6903 25.6121 23.959 24.502C25.2277 23.3919 26.0489 21.8579 26.2693 20.1866C26.3106 19.8457 26.2408 19.5007 26.0702 19.2027C25.8995 18.9048 25.6372 18.6699 25.3224 18.5331ZM25.2188 20.0538C25.0312 21.4692 24.3346 22.7679 23.2591 23.707C22.1835 24.6461 20.8028 25.1614 19.375 25.1564C9.70892 25.1564 1.84376 17.2913 1.84376 7.62519C1.83882 6.19738 2.35407 4.81665 3.29318 3.74114C4.2323 2.66564 5.53098 1.96898 6.94642 1.78144C6.96765 1.78012 6.98894 1.78012 7.01017 1.78144C7.11498 1.78233 7.21718 1.8142 7.30391 1.87305C7.39064 1.9319 7.45803 2.01508 7.49759 2.11214L10.3013 8.37292C10.334 8.44944 10.3483 8.53257 10.3429 8.61562C10.3376 8.69867 10.3129 8.77931 10.2707 8.85105L7.45642 12.1979C7.44314 12.2152 7.42986 12.2311 7.4179 12.2497C7.26797 12.479 7.17967 12.7431 7.16152 13.0164C7.14338 13.2898 7.196 13.5632 7.31431 13.8103C8.46845 16.173 10.8485 18.5357 13.2377 19.6899C13.4865 19.8074 13.7615 19.8586 14.0359 19.8383C14.3103 19.8181 14.5748 19.7271 14.8036 19.5743L14.8527 19.5371L18.1505 16.7321C18.221 16.689 18.3008 16.6633 18.3832 16.6571C18.4657 16.6508 18.5484 16.6643 18.6246 16.6963L24.8947 19.5066C25.0005 19.5506 25.0892 19.6277 25.1477 19.7263C25.2061 19.825 25.231 19.9398 25.2188 20.0538Z" fill="#CCA665"/>
</svg>
