<svg width="29" height="22" viewBox="0 0 29 22" fill="none" xmlns="http://www.w3.org/2000/svg">
<path d="M26.2812 21.8H2.71875C1.32698 21.8 0.2 20.6634 0.2 19.25V2.75C0.2 1.33663 1.32698 0.2 2.71875 0.2H26.2812C27.673 0.2 28.8 1.33663 28.8 2.75V19.25C28.8 20.6634 27.673 21.8 26.2812 21.8ZM2.71875 1.63333C2.09864 1.63333 1.6125 2.12837 1.6125 2.75V19.25C1.6125 19.8716 2.09864 20.3667 2.71875 20.3667H26.2812C26.9014 20.3667 27.3875 19.8716 27.3875 19.25V2.75C27.3875 2.12837 26.9014 1.63333 26.2812 1.63333H2.71875Z" fill="#CCA665" stroke="white" stroke-width="0.4"/>
</svg>
