<svg width="16" height="16" viewBox="0 0 16 16" fill="none" xmlns="http://www.w3.org/2000/svg">
<g clip-path="url(#clip0_108_616)">
<path d="M7.99998 0C5.82548 0 5.55448 0.0105 4.70348 0.0465C3.84898 0.0885 3.27098 0.221 2.76098 0.419C2.22721 0.62051 1.74381 0.936008 1.34448 1.3435C0.935848 1.7419 0.620175 2.22557 0.419977 2.76C0.221977 3.27 0.0894766 3.848 0.0474766 4.7025C0.00897656 5.554 0.000976562 5.8245 0.000976562 7.999C0.000976562 10.1735 0.0114766 10.4445 0.0474766 11.2955C0.0894766 12.1475 0.221977 12.728 0.419977 13.238C0.621487 13.7718 0.936984 14.2552 1.34448 14.6545C1.74288 15.0631 2.22654 15.3788 2.76098 15.579C3.27098 15.7745 3.85148 15.9095 4.70348 15.9515C5.55498 15.99 5.82548 15.998 7.99998 15.998C10.1745 15.998 10.4455 15.9875 11.2965 15.9515C12.1485 15.9095 12.729 15.774 13.239 15.579C13.7727 15.3775 14.2561 15.062 14.6555 14.6545C15.0646 14.2565 15.3804 13.7727 15.58 13.238C15.7755 12.728 15.9105 12.1475 15.9525 11.2955C15.991 10.444 15.999 10.1735 15.999 7.999C15.999 5.8245 15.9885 5.5535 15.9525 4.7025C15.9105 3.8505 15.775 3.267 15.58 2.76C15.3785 2.22623 15.063 1.74283 14.6555 1.3435C14.2575 0.934345 13.7737 0.61859 13.239 0.419C12.729 0.221 12.1485 0.0885 11.2965 0.0465C10.445 0.008 10.1745 0 7.99998 0ZM7.99998 1.44C10.1355 1.44 10.3905 1.4505 11.2345 1.4865C12.013 1.523 12.437 1.653 12.7185 1.763C13.0665 1.89146 13.3815 2.09592 13.6405 2.3615C13.9056 2.61941 14.1093 2.93367 14.2365 3.281C14.3465 3.5625 14.4765 3.9865 14.513 4.765C14.549 5.609 14.5595 5.8645 14.5595 7.9995C14.5595 10.1345 14.549 10.39 14.51 11.234C14.468 12.0125 14.338 12.4365 14.2285 12.718C14.077 13.0935 13.908 13.356 13.629 13.64C13.3691 13.9039 13.0543 14.1074 12.707 14.236C12.429 14.346 11.999 14.476 11.2175 14.5125C10.369 14.5485 10.119 14.559 7.97798 14.559C5.83698 14.559 5.58748 14.5485 4.73798 14.5095C3.95948 14.4675 3.52998 14.3375 3.24848 14.228C2.86848 14.0765 2.60798 13.9075 2.32898 13.6285C2.04748 13.347 1.86848 13.079 1.73048 12.7065C1.61848 12.4285 1.49048 11.9985 1.44898 11.217C1.42048 10.3785 1.40698 10.1185 1.40698 7.9875C1.40698 5.8575 1.42048 5.597 1.44898 4.748C1.49048 3.9665 1.61848 3.5375 1.73048 3.2585C1.86848 2.878 2.04798 2.618 2.32898 2.3365C2.60748 2.058 2.86848 1.878 3.24848 1.737C3.52998 1.6275 3.94898 1.4975 4.73048 1.4585C5.57898 1.428 5.82898 1.417 7.96698 1.417L7.99998 1.44ZM7.99998 3.8935C7.46065 3.8933 6.92657 3.99939 6.42825 4.20569C5.92994 4.41199 5.47717 4.71446 5.0958 5.09583C4.71444 5.47719 4.41196 5.92996 4.20566 6.42828C3.99936 6.92659 3.89328 7.46067 3.89348 8C3.89328 8.53933 3.99936 9.07341 4.20566 9.57172C4.41196 10.07 4.71444 10.5228 5.0958 10.9042C5.47717 11.2855 5.92994 11.588 6.42825 11.7943C6.92657 12.0006 7.46065 12.1067 7.99998 12.1065C8.53931 12.1067 9.07339 12.0006 9.5717 11.7943C10.07 11.588 10.5228 11.2855 10.9042 10.9042C11.2855 10.5228 11.588 10.07 11.7943 9.57172C12.0006 9.07341 12.1067 8.53933 12.1065 8C12.1067 7.46067 12.0006 6.92659 11.7943 6.42828C11.588 5.92996 11.2855 5.47719 10.9042 5.09583C10.5228 4.71446 10.07 4.41199 9.5717 4.20569C9.07339 3.99939 8.53931 3.8933 7.99998 3.8935ZM7.99998 10.6665C6.52598 10.6665 5.33348 9.474 5.33348 8C5.33348 6.526 6.52598 5.3335 7.99998 5.3335C9.47398 5.3335 10.6665 6.526 10.6665 8C10.6665 9.474 9.47398 10.6665 7.99998 10.6665ZM13.232 3.7295C13.2317 3.98433 13.1303 4.22864 12.95 4.40874C12.7697 4.58884 12.5253 4.69 12.2705 4.69C12.1445 4.69 12.0197 4.66518 11.9033 4.61696C11.7869 4.56874 11.6811 4.49807 11.592 4.40897C11.5029 4.31987 11.4322 4.2141 11.384 4.09768C11.3358 3.98127 11.311 3.8565 11.311 3.7305C11.311 3.6045 11.3358 3.47973 11.384 3.36332C11.4322 3.2469 11.5029 3.14113 11.592 3.05203C11.6811 2.96293 11.7869 2.89226 11.9033 2.84404C12.0197 2.79582 12.1445 2.771 12.2705 2.771C12.799 2.771 13.232 3.201 13.232 3.7295Z" fill="black"/>
</g>
<defs>
<clipPath id="clip0_108_616">
<rect width="16" height="16" fill="white"/>
</clipPath>
</defs>
</svg>
