<svg width="17" height="16" viewBox="0 0 17 16" fill="none" xmlns="http://www.w3.org/2000/svg">
<path d="M3.69565 16H0V5.09091H3.69565V16ZM1.84857 3.63636C0.826348 3.63636 0 2.82109 0 1.81745C0 0.813818 0.827826 0 1.84857 0C2.86709 0 3.69565 0.815273 3.69565 1.81745C3.69565 2.82109 2.86709 3.63636 1.84857 3.63636ZM17 16H13.447V10.6909C13.447 9.42473 13.4226 7.79636 11.5999 7.79636C9.74987 7.79636 9.4653 9.17527 9.4653 10.5993V16H5.91304V5.08291H9.32339V6.57455H9.37144C9.84596 5.71636 11.0057 4.81164 12.7352 4.81164C16.3348 4.81164 17 7.07273 17 10.0124V16Z" fill="black"/>
</svg>
