<svg width="50" height="50" viewBox="0 0 50 50" fill="none" xmlns="http://www.w3.org/2000/svg">
<path d="M48.1205 34.9295L35.8234 29.4268C35.3467 29.2205 34.8261 29.1363 34.3087 29.1818C33.7912 29.2272 33.2933 29.401 32.8599 29.6872C32.8252 29.7092 32.7921 29.7336 32.7609 29.7602L26.3025 35.2654C26.1588 35.3531 25.9956 35.4039 25.8275 35.4135C25.6595 35.423 25.4916 35.391 25.3389 35.3201C21.1097 33.2784 16.732 28.9346 14.6903 24.7549C14.6181 24.6033 14.5846 24.4362 14.5928 24.2685C14.6009 24.1008 14.6506 23.9378 14.7372 23.7939L20.2581 17.2288C20.2842 17.1975 20.3076 17.1637 20.331 17.1298C20.6164 16.697 20.7897 16.2 20.8351 15.6835C20.8806 15.1671 20.7969 14.6475 20.5915 14.1714L15.0784 1.89526C14.8122 1.2735 14.3515 0.754866 13.7655 0.41724C13.1795 0.0796142 12.4997 -0.058778 11.8283 0.0228455C8.55111 0.454934 5.54326 2.06522 3.36656 4.55294C1.18986 7.04066 -0.00682288 10.2357 2.9264e-05 13.5412C2.9264e-05 33.6456 16.3544 50 36.4589 50C39.7644 50.0068 42.9594 48.8101 45.4472 46.6335C47.9349 44.4568 49.5452 41.4489 49.9773 38.1717C50.0583 37.5034 49.9213 36.8268 49.5868 36.2426C49.2522 35.6584 48.7379 35.1978 48.1205 34.9295ZM47.9174 37.9113C47.5496 40.6867 46.1836 43.2332 44.0747 45.0746C41.9659 46.916 39.2585 47.9263 36.4589 47.9166C17.5055 47.9166 2.08339 32.4946 2.08339 13.5412C2.07369 10.7416 3.084 8.03423 4.92543 5.92537C6.76685 3.81651 9.31332 2.45051 12.0887 2.08276C12.1304 2.08018 12.1721 2.08018 12.2137 2.08276C12.4192 2.08452 12.6196 2.14702 12.7897 2.2624C12.9598 2.37779 13.0919 2.5409 13.1695 2.73121L18.667 15.0074C18.7311 15.1574 18.7591 15.3204 18.7487 15.4833C18.7383 15.6461 18.6898 15.8042 18.6071 15.9449L13.0887 22.5075C13.0627 22.5413 13.0367 22.5726 13.0132 22.609C12.7192 23.0586 12.5461 23.5764 12.5105 24.1124C12.4749 24.6484 12.5781 25.1845 12.8101 25.669C15.0732 30.3018 19.7399 34.9347 24.4248 37.1977C24.9126 37.4282 25.4518 37.5285 25.9899 37.4888C26.5279 37.4491 27.0465 37.2708 27.4952 36.9712L27.5916 36.8983L34.0578 31.3982C34.1961 31.3137 34.3525 31.2633 34.5142 31.251C34.6758 31.2388 34.838 31.2651 34.9875 31.3279L47.2819 36.8384C47.4894 36.9247 47.6634 37.0759 47.7779 37.2692C47.8924 37.4626 47.9413 37.6878 47.9174 37.9113Z" fill="#CCA665"/>
</svg>
